# xmcd CD database file
#
# Track frame offsets:
#	150
#	21427
#	42380
#	65957
#	88747
#	106262
#	128800
#	155477
#	174992
#	194887
#	218770
#	240680
#	267067
#
# Disc length: 3927 seconds
#
# Revision: 0
# Processed by: cddbd v1.5.2PL0 Copyright (c) Steve Scherf et al.
# Submitted via: CDex 1.70beta2
#
DISCID=bf0f550d
DTITLE=Conjunto Clásico - Historia Musical 3
DYEAR=1995
DGENRE=Salsa
TTITLE0=Lana
TTITLE1=Sin Rumbo Alguno
TTITLE2=Yo Ya Lo Sabia
TTITLE3=Escuchen Bien
TTITLE4=No Quiero Na
TTITLE5=Teresita
TTITLE6=Masacote
TTITLE7=Felicitaciones
TTITLE8=Pa Los Rumberos
TTITLE9=Mentirosa
TTITLE10=La Noche Entera
TTITLE11=Camarones Y Guavaras
TTITLE12=Pau Pau
EXTD=YEAR: 1995
EXTT0=
EXTT1=
EXTT2=
EXTT3=
EXTT4=
EXTT5=
EXTT6=
EXTT7=
EXTT8=
EXTT9=
EXTT10=
EXTT11=
EXTT12=
PLAYORDER=
